<?xml version="1.0" encoding="UTF-8"?>
<svg width="32px" height="32px" viewBox="0 0 32 32" version="1.1" xmlns="http://www.w3.org/2000/svg">
    <title>Fan Sphere</title>
    <g stroke="none" stroke-width="1" fill="none" fill-rule="evenodd">
        <circle fill="#6366F1" cx="16" cy="16" r="16"/>
        <path d="M16,8 C18.7614237,8 21,10.2385763 21,13 C21,14.9365278 19.9435,16.5918889 18.3626389,17.3845556 C20.4777778,18.2827778 22,20.2872222 22,22.6111111 L20,22.6111111 C20,20.2777778 18.2088889,18.4444444 16,18.4444444 C13.7911111,18.4444444 12,20.2777778 12,22.6111111 L10,22.6111111 C10,20.2872222 11.5222222,18.2827778 13.6373611,17.3845556 C12.0565,16.5918889 11,14.9365278 11,13 C11,10.2385763 13.2385763,8 16,8 Z M16,10 C14.3431458,10 13,11.3431458 13,13 C13,14.6568542 14.3431458,16 16,16 C17.6568542,16 19,14.6568542 19,13 C19,11.3431458 17.6568542,10 16,10 Z" fill="#FFFFFF"/>
    </g>
</svg>